Coordinates
version=1
nRows=29
nColumns=24
inDegrees=yes

Units are S.I. units (second, meters, Newtons, ...)
Angles are in degrees.

endheader
time	pelvis_tilt	pelvis_list	pelvis_rotation	pelvis_tx	pelvis_ty	pelvis_tz	hip_flexion_r	hip_adduction_r	hip_rotation_r	knee_angle_r	ankle_angle_r	subtalar_angle_r	mtp_angle_r	hip_flexion_l	hip_adduction_l	hip_rotation_l	knee_angle_l	ankle_angle_l	subtalar_angle_l	mtp_angle_l	lumbar_extension	lumbar_bending	lumbar_rotation
      1.93000000	     -6.36696729	     -2.43363970	      2.54221106	      0.14614944	      1.23700475	     -0.81212705	     12.51189831	      9.41264267	      4.42758548	    -12.08455280	      4.19783640	     -1.73527366	      4.01931341	     29.46101717	      3.05177112	     -0.91893744	    -64.36064512	     -8.14235419	     -1.92419114	     23.55200098	     -5.49391301	      4.98533542	      4.92655470
      1.93500000	     -6.37087825	     -2.33586953	      2.53830709	      0.15142049	      1.23754869	     -0.81201050	     11.91298768	      9.32122259	      4.50959126	    -11.78840870	      4.38171150	     -1.68530232	      3.98364675	     29.92703061	      3.30652347	     -0.90149624	    -63.64165371	     -7.42925382	     -1.76516811	     23.41781272	     -5.49088333	      4.88536151	      5.01135580
      1.94000000	     -6.37530854	     -2.23696330	      2.54451464	      0.15670402	      1.23807979	     -0.81193142	     11.31209142	      9.22201718	      4.58583003	    -11.48880993	      4.55440912	     -1.62816965	      3.94747054	     30.35869104	      3.58194903	     -0.83165154	    -62.82126769	     -6.72868251	     -1.56448911	     23.25496275	     -5.47836259	      4.78355594	      5.11012097
      1.94500000	     -6.37523730	     -2.14109670	      2.55834784	      0.16196878	      1.23857935	     -0.81187979	     10.70964817	      9.12228714	      4.65674457	    -11.19181046	      4.71296725	     -1.55767474	      3.91515086	     30.75973652	      3.86841765	     -0.71544883	    -61.91738901	     -6.05028651	     -1.35615382	     23.03562216	     -5.47499746	      4.68483317	      5.20769027
      1.95000000	     -6.38712242	     -2.04744818	      2.57194965	      0.16726475	      1.23902847	     -0.81182777	     10.12484986	      9.02472863	      4.70314560	    -10.90474899	      4.88692553	     -1.51298785	      3.88767705	     31.14377836	      4.14655394	     -0.59139724	    -60.92862097	     -5.40459298	     -1.26605158	     22.81995295	     -5.45441964	      4.58176644	      5.29330311
      1.95500000	     -6.38829486	     -1.95422314	      2.59026384	      0.17254636	      1.23946897	     -0.81180869	      9.52553017	      8.92304075	      4.74645524	    -10.60853990	      5.03663791	     -1.43565343	      3.86944661	     31.48215827	      4.44028025	     -0.41029652	    -59.84988420	     -4.79369004	     -1.17537555	     22.53453647	     -5.44786332	      4.47809756	      5.38381050
      1.96000000	     -6.40013482	     -1.86762063	      2.60945798	      0.17784414	      1.23985140	     -0.81180734	      8.94406345	      8.82694591	      4.76151840	    -10.32226329	      5.19097641	     -1.36446296	      3.86063419	     31.80675085	      4.72445143	     -0.20841501	    -58.69923582	     -4.22070862	     -1.17900664	     22.21494225	     -5.42542203	      4.38523099	      5.47276022
      1.96500000	     -6.45774060	     -1.78588390	      2.61155472	      0.18312850	      1.24015075	     -0.81179633	      8.43803493	      8.73956148	      4.79431471	    -10.07670116	      5.34088828	     -1.33036755	      3.85379147	     32.15728549	      4.99408067	      0.00448115	    -57.47427952	     -3.66349902	     -1.31243057	     21.97120320	     -5.36355518	      4.29438109	      5.52439850
      1.97000000	     -6.44756333	     -1.70544033	      2.64200102	      0.18841334	      1.24049327	     -0.81184553	      7.83148636	      8.64254743	      4.73481268	     -9.77869031	      5.47769689	     -1.15591789	      3.89264580	     32.39500978	      5.28302112	      0.29163205	    -56.16898230	     -3.21044855	     -1.42656956	     21.34110064	     -5.36568201	      4.20302562	      5.61155949
      1.97500000	     -6.46045720	     -1.63818018	      2.64976351	      0.19368904	      1.24074991	     -0.81185850	      7.26608819	      8.57180880	      4.70263440	     -9.50551617	      5.62596607	     -1.11392927	      3.89578772	     32.63663419	      5.53041612	      0.57416868	    -54.79894003	     -2.74855494	     -1.68948652	     21.01979177	     -5.34498499	      4.12046139	      5.72618064
      1.98000000	     -6.47965787	     -1.57979441	      2.65285523	      0.19891860	      1.24096071	     -0.81190307	      6.72960240	      8.50889139	      4.66676983	     -9.26428543	      5.76222033	     -1.03907239	      3.92157640	     32.85605432	      5.77495157	      0.91078665	    -53.35647399	     -2.32212588	     -2.04715119	     20.62723434	     -5.32991693	      4.05451358	      5.81062647
      1.98500000	     -6.51017762	     -1.52484137	      2.64849752	      0.20415334	      1.24112459	     -0.81194137	      6.20895018	      8.45147164	      4.59806587	     -9.02310346	      5.89343612	     -0.94335279	      3.96194429	     33.05757332	      6.00037157	      1.26164554	    -51.84620755	     -1.95649059	     -2.47863126	     20.17209163	     -5.30258819	      3.98894797	      5.90340474
      1.99000000	     -6.54558587	     -1.47639246	      2.63575228	      0.20936839	      1.24123680	     -0.81198202	      5.70611288	      8.40258474	      4.51543205	     -8.79703756	      6.02453967	     -0.84371954	      4.01098093	     33.23429115	      6.20545488	      1.63393383	    -50.27060815	     -1.61681324	     -2.97863985	     19.68124956	     -5.27455340	      3.93094400	      5.99001501
      1.99500000	     -6.61940840	     -1.43665747	      2.61849514	      0.21459235	      1.24127102	     -0.81204498	      5.26175684	      8.35903123	      4.37903326	     -8.59457581	      6.15740863	     -0.66861056	      4.10336052	     33.42496253	      6.39382581	      2.02993912	    -48.63812118	     -1.35030009	     -3.54961632	     19.05088068	     -5.20660072	      3.88404660	      6.06091196
      2.00000000	     -6.65949690	     -1.40360659	      2.58387215	      0.21976967	      1.24129286	     -0.81207013	      4.77799000	      8.33401173	      4.28999530	     -8.38098508	      6.28049998	     -0.58951791	      4.14973768	     33.54240712	      6.54494120	      2.44093127	    -46.93138047	     -1.06717750	     -4.12216646	     18.54818725	     -5.18170809	      3.83905588	      6.17790552
      2.00500000	     -6.70541566	     -1.38390767	      2.53155923	      0.22488067	      1.24125837	     -0.81208638	      4.33465969	      8.32804452	      4.21907330	     -8.22027598	      6.40643818	     -0.51706374	      4.20016683	     33.63432820	      6.66402837	      2.88167277	    -45.16124667	     -0.79091866	     -4.75605649	     18.02577443	     -5.16708616	      3.81308029	      6.26504149
      2.01000000	     -6.76950870	     -1.36998048	      2.47562888	      0.22999201	      1.24116560	     -0.81210567	      3.91476572	      8.32725532	      4.12381142	     -8.06049517	      6.52315164	     -0.41916179	      4.26790255	     33.70983874	      6.75964119	      3.33940176	    -43.32775434	     -0.57370483	     -5.42016531	     17.43634845	     -5.13695494	      3.79255303	      6.35136144
      2.01500000	     -6.83909959	     -1.36338332	      2.40690267	      0.23508285	      1.24102311	     -0.81211831	      3.51392058	      8.33648999	      4.03163253	     -7.91926921	      6.64295267	     -0.31875383	      4.33857912	     33.75072274	      6.82334744	      3.81071769	    -41.42755022	     -0.37119990	     -6.08613272	     16.81624109	     -5.10269839	      3.78221898	      6.43959095
      2.02000000	     -6.91466683	     -1.36571670	      2.33117984	      0.24017082	      1.24083622	     -0.81212864	      3.12620591	      8.35632991	      3.93750585	     -7.78706054	      6.75949247	     -0.21411513	      4.41805523	     33.75189274	      6.85365836	      4.29489982	    -39.45922727	     -0.20404444	     -6.75910990	     16.15248534	     -5.06468122	      3.78247994	      6.52330522
      2.02500000	     -6.99256973	     -1.37926866	      2.24507586	      0.24523056	      1.24060036	     -0.81211870	      2.75568106	      8.39161600	      3.85957909	     -7.67784116	      6.87464482	     -0.12518979	      4.49810586	     33.71401875	      6.84397651	      4.78838078	    -37.43150254	     -0.04788398	     -7.40376615	     15.47886169	     -5.03635684	      3.79177604	      6.59558689
      2.03000000	     -7.08448947	     -1.40364236	      2.15700805	      0.25030575	      1.24031686	     -0.81212145	      2.39866445	      8.43600746	      3.78792218	     -7.56436453	      6.97129757	     -0.01738957	      4.59201110	     33.64425641	      6.80425092	      5.29961302	    -35.34168337	      0.05666476	     -8.05592994	     14.73320101	     -4.98799478	      3.81754525	      6.66077595
      2.03500000	     -7.16573589	     -1.44090105	      2.06019746	      0.25535622	      1.23998230	     -0.81210633	      2.04430909	      8.49851638	      3.73085839	     -7.47705795	      7.07941833	      0.06627700	      4.68416835	     33.52943206	      6.71776019	      5.79558078	    -33.20956303	      0.15858346	     -8.65377693	     13.98592187	     -4.96004670	      3.85696693	      6.71684074
      2.04000000	     -7.26162443	     -1.49127472	      1.95996035	      0.26040597	      1.23960158	     -0.81208879	      1.70900083	      8.57437214	      3.69532567	     -7.39191031	      7.16764055	      0.13774919	      4.78143296	     33.39059655	      6.59472429	      6.29190625	    -31.02823332	      0.22675381	     -9.22400854	     13.19706586	     -4.92033621	      3.90996346	      6.75926095
      2.04500000	     -7.35708272	     -1.55203645	      1.85434945	      0.26547772	      1.23917568	     -0.81206008	      1.37847796	      8.66352969	      3.67681495	     -7.32364781	      7.25739087	      0.18191734	      4.87837465	     33.21899062	      6.43027554	      6.75575765	    -28.81362821	      0.28148637	     -9.72263225	     12.42782559	     -4.87667570	      3.97272447	      6.80071911
      2.05000000	     -7.45670325	     -1.62948404	      1.74476714	      0.27055911	      1.23871029	     -0.81202590	      1.05315973	      8.77089246	      3.68968429	     -7.25838488	      7.32571950	      0.21911289	      4.98377681	     33.01815511	      6.22536258	      7.19847258	    -26.56448926	      0.28745137	    -10.18389410	     11.62194749	     -4.83165142	      4.05271046	      6.82169014
      2.05500000	     -7.55437874	     -1.72100225	      1.63176929	      0.27567010	      1.23819389	     -0.81197802	      0.72679819	      8.89535778	      3.72844743	     -7.20162727	      7.38738792	      0.23115657	      5.09448356	     32.79333794	      5.98084588	      7.59037550	    -24.30685715	      0.27435886	    -10.56002950	     10.83458709	     -4.78409247	      4.14510471	      6.83822128
      2.06000000	     -7.68058300	     -1.83880300	      1.53370327	      0.28083626	      1.23759374	     -0.81197685	      0.40690536	      9.04124326	      3.77547416	     -7.10112852	      7.41095587	      0.23706693	      5.24034251	     32.58802730	      5.71341950	      7.98125174	    -22.06757363	      0.21730350	    -10.92094119	      9.96432469	     -4.69671153	      4.26771780	      6.84570081
      2.06500000	     -7.76608742	     -1.95275779	      1.38052652	      0.28596830	      1.23700691	     -0.81185742	      0.10102265	      9.19786832	      3.91072582	     -7.12103332	      7.48105670	      0.18128103	      5.33552137	     32.31688575	      5.38068627	      8.19702937	    -19.81592571	      0.16649853	    -11.03520301	      9.35888020	     -4.67004109	      4.37930672	      6.86494005
      2.07000000	     -7.86934390	     -2.08771901	      1.24081556	      0.29118716	      1.23635356	     -0.81178883	     -0.21880611	      9.36946828	      4.05721941	     -7.08706516	      7.50601171	      0.09992942	      5.44813299	     32.05924172	      5.03739395	      8.38876150	    -17.61214534	      0.07079579	    -11.11040469	      8.74426339	     -4.60476615	      4.51670484	      6.88788678
